# xmcd CD database file
#
# Track frame offsets:
#	183
#	13790
#	27340
#	41693
#	53313
#	67548
#	82335
#	96353
#	109140
#	123898
#	141665
#	154020
#	166903
#	180885
#	193643
#
# Disc length: 2817 seconds
#
# Revision: 0
# Processed by: cddbd v1.4b42PL1 Copyright (c) Steve Scherf et al.
# Submitted via: CDex 1.40Beta8
#
DISCID=bd0aff0f
DTITLE=Románticos de Cuba - 30 Boleros románticos Vo.2
DYEAR=1900
DGENRE=Country
TTITLE0=Vereda tropical-Tres palabras
TTITLE1=Contigo en la distancia-Amor, amor, amor
TTITLE2=Adliós-La puerta
TTITLE3=Martha-Nessuno al mondo
TTITLE4=Et maintenant-Las hojas muertas
TTITLE5=Cuando tu me quieras-Regalo de viaje
TTITLE6=Sibonay-Desesperadamente
TTITLE7=La violetera-Capullito de alheli
TTITLE8=Marimba-Toda una vida
TTITLE9=Oración caribe-Traicionera
TTITLE10=Sabrá Dios-Mi carta
TTITLE11=Espinita-Pecadora
TTITLE12=Nuestro concierto-Amapola
TTITLE13=María Elena-India
TTITLE14=Cuando vuelva a tu lado-Besame mucho
EXTD=ID3G: 2
EXTT0=
EXTT1=
EXTT2=
EXTT3=
EXTT4=
EXTT5=
EXTT6=
EXTT7=
EXTT8=
EXTT9=
EXTT10=
EXTT11=
EXTT12=
EXTT13=
EXTT14=
PLAYORDER=
